<svg width="27" height="49" viewBox="0 0 27 49" fill="none" xmlns="http://www.w3.org/2000/svg">
<path d="M17.5653 48.0869H9.00391V48.9575H17.5653V48.0869Z" fill="#63707A"/>
<path d="M4.17596 46.4468C3.58131 47.212 4.42098 48.201 5.17394 48.2964C5.65631 48.3573 6.17601 47.9455 6.04762 47.3435C5.90925 46.6946 4.60155 45.6749 4.17596 46.4468Z" fill="#D52E2F"/>
<path d="M22.3912 46.4468C22.9861 47.212 22.1464 48.201 21.3932 48.2964C20.9111 48.3573 20.3914 47.9455 20.5198 47.3435C20.6582 46.6946 21.9659 45.6749 22.3912 46.4468Z" fill="#D52E2F"/>
<path d="M20.2829 0.838642C19.077 0.269062 17.7798 0 16.4756 0L13.2819 0L10.088 0C8.78438 0 7.4869 0.269062 6.28099 0.838642C4.49552 1.6824 2.48344 3.34869 2.20312 6.60325V43.249C2.20312 43.249 2.66887 48.0082 7.74241 48.6031H18.8212C23.8948 48.0082 24.3608 43.249 24.3608 43.249V6.60325C24.0805 3.34869 22.0684 1.6824 20.2829 0.838642Z" fill="white"/>
<path d="M2.89844 15.5181V27.8829L4.74043 28.477V23.8567C4.74043 22.4167 4.53275 20.9868 4.12584 19.6251L2.89844 15.5181Z" fill="#212B32"/>
<path d="M4.74043 29.2147L2.89844 28.5464V38.8318L3.07057 38.5126C4.16216 36.4883 4.74043 34.154 4.74043 31.7726V29.2147Z" fill="#212B32"/>
<path d="M23.6818 15.5181V27.8829L21.8398 28.477V23.8567C21.8398 22.4167 22.0475 20.9868 22.4544 19.6251L23.6818 15.5181Z" fill="#212B32"/>
<path d="M21.8398 29.2147L23.6818 28.5464V38.8318L23.5097 38.5126C22.4181 36.4883 21.8398 34.154 21.8398 31.7726V29.2147Z" fill="#212B32"/>
<path d="M3.96755 4.98145H3.25781V6.88048H3.96755V4.98145Z" fill="#212B32"/>
<path d="M4.68409 4.98145H3.97461V6.88048H4.68409V4.98145Z" fill="white"/>
<path d="M4.68409 6.89697H3.97461V8.79626H4.68409V6.89697Z" fill="#212B32"/>
<path d="M3.96755 6.89697H3.25781V8.79626H3.96755V6.89697Z" fill="white"/>
<path d="M3.96755 8.81299H3.25781V10.7123H3.96755V8.81299Z" fill="#212B32"/>
<path d="M4.68409 8.81299H3.97461V10.7123H4.68409V8.81299Z" fill="white"/>
<path d="M4.68409 10.729H3.97461V12.628H4.68409V10.729Z" fill="#212B32"/>
<path d="M3.96755 10.729H3.25781V12.628H3.96755V10.729Z" fill="white"/>
<path d="M3.96755 12.6445H3.25781V14.5438H3.96755V12.6445Z" fill="#212B32"/>
<path d="M3.96755 38.5083H3.25781V40.4076H3.96755V38.5083Z" fill="#212B32"/>
<path d="M4.68409 38.5083H3.97461V40.4076H4.68409V38.5083Z" fill="white"/>
<path d="M4.68409 40.4238H3.97461V42.3229H4.68409V40.4238Z" fill="#212B32"/>
<path d="M3.96755 40.4238H3.25781V42.3229H3.96755V40.4238Z" fill="white"/>
<path d="M3.96755 42.3398H3.25781V44.2391H3.96755V42.3398Z" fill="#212B32"/>
<path d="M4.68409 42.3398H3.97461V44.2391H4.68409V42.3398Z" fill="white"/>
<path d="M4.68409 44.2559H3.97461V46.1551H4.68409V44.2559Z" fill="#212B32"/>
<path d="M22.5984 4.98145H21.8887V6.88048H22.5984V4.98145Z" fill="white"/>
<path d="M23.3167 6.89697H22.6074V8.79626H23.3167V6.89697Z" fill="white"/>
<path d="M22.5984 8.81299H21.8887V10.7123H22.5984V8.81299Z" fill="white"/>
<path d="M23.3167 10.729H22.6074V12.628H23.3167V10.729Z" fill="white"/>
<path d="M23.3167 4.98145H22.6074V6.88048H23.3167V4.98145Z" fill="#212B32"/>
<path d="M22.5984 6.89697H21.8887V8.79626H22.5984V6.89697Z" fill="#212B32"/>
<path d="M23.3167 8.81299H22.6074V10.7123H23.3167V8.81299Z" fill="#212B32"/>
<path d="M22.5984 10.729H21.8887V12.628H22.5984V10.729Z" fill="#212B32"/>
<path d="M23.3167 12.645H22.6074V14.5443H23.3167V12.645Z" fill="#212B32"/>
<path d="M23.3167 38.5083H22.6074V40.4076H23.3167V38.5083Z" fill="#212B32"/>
<path d="M22.5984 38.5083H21.8887V40.4076H22.5984V38.5083Z" fill="white"/>
<path d="M22.5984 40.4238H21.8887V42.3229H22.5984V40.4238Z" fill="#212B32"/>
<path d="M23.3167 40.4238H22.6074V42.3229H23.3167V40.4238Z" fill="white"/>
<path d="M23.3167 42.3398H22.6074V44.2391H23.3167V42.3398Z" fill="#212B32"/>
<path d="M22.5984 42.3398H21.8887V44.2391H22.5984V42.3398Z" fill="white"/>
<path d="M22.5984 44.2559H21.8887V46.1551H22.5984V44.2559Z" fill="#212B32"/>
<path d="M21.5938 13.2841C18.996 11.0119 15.6655 10.86 14.1299 10.9314C13.567 10.9575 13.0033 10.9575 12.4404 10.9314C10.9048 10.86 7.57425 11.0119 4.97648 13.2844C4.39923 13.7893 4.15958 14.6565 4.37953 15.4509L5.85298 20.7726C5.85298 20.7726 8.2065 19.6569 12.6327 19.9094C13.067 19.9342 13.5033 19.9342 13.9376 19.9094C18.3638 19.6569 20.7173 20.7726 20.7173 20.7726L22.1908 15.4509C22.411 14.6565 22.1711 13.7893 21.5938 13.2841Z" fill="#212B32"/>
<path d="M20.399 37.9492C17.3575 38.8669 14.928 38.9262 13.8645 38.8945C13.4758 38.8827 13.0875 38.8827 12.6988 38.8945C11.6351 38.9262 9.2061 38.8669 6.16408 37.9492C5.91036 37.8727 5.65511 38.0691 5.62109 38.3684L5.06814 43.2591C5.04205 43.4895 5.15663 43.71 5.34589 43.7918C6.21395 44.167 8.84625 45.1067 13.2817 45.0274C17.7171 45.1067 20.3494 44.167 21.2174 43.7918C21.407 43.71 21.5213 43.4895 21.4952 43.2591L20.9422 38.3684C20.9082 38.0691 20.653 37.8727 20.399 37.9492Z" fill="#212B32"/>
<path d="M12.4714 20.7162C11.0365 20.6497 8.04183 20.652 6.14382 21.6466C5.72412 21.8668 5.46094 22.3564 5.46094 22.8863V33.1735C5.46094 34.982 6.42695 36.6181 7.90192 37.2491C9.07229 37.7499 10.7877 38.1729 13.2913 38.2739C15.795 38.1729 17.5104 37.7499 18.6807 37.2491C20.1557 36.6181 21.1215 34.982 21.1215 33.1735V22.8863C21.1215 22.3564 20.8586 21.8668 20.4389 21.6466C18.5408 20.652 15.5461 20.6497 14.1113 20.7162C13.5645 20.7417 13.0182 20.7417 12.4714 20.7162Z" fill="#E5E2DC"/>
<path d="M3.70165 4.41948C3.5487 4.243 3.56123 3.95374 3.70344 3.76575C4.00344 3.36958 4.25077 2.88261 4.60576 2.5092C5.02879 2.06392 5.67868 1.52196 6.31936 1.18512C6.59507 1.04036 6.88332 1.34881 6.78306 1.67772C6.74444 1.80406 6.71273 1.92529 6.68613 2.02555C6.54469 2.55984 6.43216 2.92711 6.07972 3.34221C5.74799 3.73327 4.19808 4.99187 3.70165 4.41948Z" fill="white"/>
<path d="M22.8828 4.41948C23.036 4.243 23.0235 3.95374 22.881 3.76575C22.581 3.36958 22.3339 2.88261 21.9792 2.5092C21.5559 2.06392 20.906 1.52196 20.2653 1.18512C19.9896 1.04036 19.7014 1.34881 19.8016 1.67772C19.8402 1.80406 19.8719 1.92529 19.8985 2.02555C20.0402 2.55984 20.1525 2.92711 20.505 3.34221C20.8367 3.73327 22.3866 4.99187 22.8828 4.41948Z" fill="white"/>
<path d="M8.38722 1.91699C7.52991 3.97562 7.01634 5.97925 6.90151 8.26448C6.89153 8.46679 6.65905 11.2103 7.43579 10.9556C7.88414 10.8085 7.54807 8.56168 7.56521 8.23277C7.66802 6.25727 7.64526 4.14289 8.38722 1.91699Z" fill="#D4C4AB"/>
<path d="M18.1875 1.91699C19.0451 3.97562 19.5586 5.97925 19.6735 8.26448C19.6837 8.46679 19.9159 11.2103 19.1392 10.9556C18.6908 10.8085 19.0269 8.56168 19.0098 8.23277C18.907 6.25727 18.9297 4.14289 18.1875 1.91699Z" fill="#D4C4AB"/>
<path d="M2.57404 15.4022C2.428 15.1079 2.04972 15.0286 1.60086 15.3089C1.15277 15.5887 0.726158 16.0455 0.399295 16.6207C0.31029 16.7775 -0.0866524 17.4197 0.0171867 17.712C0.105936 17.9627 0.681143 17.6936 0.784982 17.6616C1.4052 17.4703 2.14845 16.9524 2.47582 16.3025C2.66406 15.9283 2.67762 15.6109 2.57404 15.4022Z" fill="#D4C4AB"/>
<path d="M24.0001 15.4022C24.1462 15.1079 24.5244 15.0286 24.9733 15.3089C25.4214 15.5887 25.848 16.0455 26.1749 16.6207C26.2636 16.7775 26.6608 17.4197 26.557 17.712C26.468 17.9627 25.8928 17.6936 25.7892 17.6616C25.169 17.4703 24.4257 16.9524 24.0983 16.3025C23.9098 15.9283 23.8963 15.6109 24.0001 15.4022Z" fill="#D4C4AB"/>
<path d="M16.0503 27.5147H10.5268C10.2153 27.5147 9.96289 27.2623 9.96289 26.951V25.2781C9.96289 24.9665 10.2153 24.7144 10.5268 24.7144H16.0503C16.3615 24.7144 16.6142 24.9665 16.6142 25.2781V26.951C16.6142 27.2623 16.3615 27.5147 16.0503 27.5147Z" fill="#D4C4AB"/>
<path d="M15.3996 26.8836H11.1719C10.8872 26.8836 10.6562 26.6529 10.6562 26.3682V25.8032C10.6562 25.5183 10.8872 25.2876 11.1719 25.2876H15.3996C15.684 25.2876 15.915 25.5183 15.915 25.8032V26.3682C15.915 26.6529 15.684 26.8836 15.3996 26.8836Z" fill="white"/>
</svg>
