<svg width="151" height="146" viewBox="0 0 151 146" fill="none" xmlns="http://www.w3.org/2000/svg">
<g filter="url(#filter0_d_2813_9555)">
<path d="M118.39 43.5078C119.763 43.5048 122.405 43.1286 123.744 42.8367C124.232 42.7313 124.714 42.6079 125.192 42.4635C127.829 41.6689 130.137 40.2634 132.385 38.7104C131.63 38.3974 131.311 37.648 131.214 37.4343C131.055 37.0822 131.199 36.2305 130.79 35.9867C130.39 36.6578 129.731 37.5397 129.129 38.0272C125.511 40.9586 118.186 42.5387 110.996 43.3001C113.882 43.565 115.501 43.5198 118.387 43.5108L118.39 43.5078Z" fill="#61CB08"/>
<path d="M100.983 43.899C97.2296 43.9983 93.4645 43.7425 89.7596 43.1375C87.5806 42.7824 85.4197 42.3069 83.2919 41.714C82.2295 41.416 81.1731 41.091 80.1257 40.7358C79.6291 40.5673 79.1235 40.4499 78.6209 40.2844C78.4494 40.2272 77.0408 39.872 77.0228 39.7486C76.4389 35.189 76.0627 30.0154 73.4142 26.0878C70.5731 21.8743 65.9443 21.7028 64.0482 26.8102C63.6178 27.9689 63.1663 30.3886 63.1122 31.6106C63.055 32.9107 63.3138 34.3343 63.2897 35.6495L59.9972 33.1695C59.8979 32.998 59.7654 25.0826 59.7654 25.0826C59.7654 25.1849 60.7105 25.2873 60.8158 25.2933C61.1559 25.3144 61.502 25.2873 61.8271 25.1789C62.2364 25.0435 62.7269 24.6823 62.9015 24.279C62.9918 24.0714 62.9466 23.8758 62.7751 23.7313C62.5825 23.5718 62.2936 23.5176 62.0588 23.4484C61.7037 23.34 61.3365 23.2648 60.9753 23.1865C60.569 23.0963 59.6571 23.009 59.4735 22.5425C59.2869 22.067 59.3381 21.5011 59.3832 21.0045C59.4404 20.3695 59.5457 19.7405 59.624 19.1085C59.6451 18.9279 59.8678 17.5374 59.5819 17.5404C59.5096 17.5404 59.4524 17.5886 59.4133 17.6458C59.3351 17.7601 59.3411 17.9257 59.311 18.0551C59.2087 18.4855 59.1334 18.9279 59.0792 19.3643C58.9017 20.8149 58.8896 22.3649 59.2719 23.7855C59.1425 23.9239 55.2239 22.4341 54.8657 22.9969C56.2652 23.7283 57.7791 24.252 59.311 24.6613L59.6721 32.9589C53.6438 28.2217 42.8362 24.1406 43.3839 14.9913C43.417 14.4375 43.9979 12.731 43.9106 12.6467C43.5495 12.2976 43.4562 12.9297 43.3809 13.0922C42.9174 14.0884 42.8572 15.6233 42.779 16.7429C42.5382 20.2672 42.9385 23.8035 43.0107 27.3308C41.5571 27.4091 40.4044 28.4173 39.3931 29.3563L39.4563 29.4045C39.9048 29.7416 40.4014 30.0154 40.928 30.2171L43.6277 31.2464L38.9688 30.2201C38.4029 26.9005 38.5625 23.4002 37.5663 20.1378C35.8628 14.5549 31.9713 13.2728 30.9842 19.9783C30.4424 23.6591 30.9601 25.4498 31.8871 28.8537C31.9202 28.9711 32.0285 29.2028 31.9382 29.3172C31.8269 29.4556 31.5861 29.3473 31.4777 29.266C30.3491 28.4324 29.2566 27.5505 28.2333 26.5874C27.0596 25.4829 25.9641 24.2971 24.9528 23.0421C23.9235 21.766 22.9785 20.4207 22.1268 19.0152C21.275 17.6097 20.5166 16.144 19.8665 14.6331C19.2255 13.1373 18.6897 11.5934 18.2864 10.0193C17.8892 8.47236 17.6153 6.88929 17.4979 5.29718C17.3956 5.46271 17.4678 7.95169 17.4678 8.21654C17.4648 13.6038 21.3382 21.7479 24.8023 25.835C27.9504 29.5459 34.1293 34.0454 38.5534 36.0408C40.3201 36.8383 44.2688 38.31 45.596 38.3341C45.9451 38.3401 52.5874 39.4296 55.564 40.2663C55.8047 38.9842 56.8852 37.8616 58.5255 38.2288C60.7737 38.7314 63.1031 38.8126 65.4386 38.8608C65.3784 38.7103 65.3182 38.5568 65.2671 38.4063C64.1896 35.2793 63.1814 25.823 67.9758 25.3625C71.163 25.0585 72.9447 28.1735 73.5797 30.822C74.6752 33.4434 74.582 38.3943 73.7784 41.2444C74.2298 41.3528 74.7475 41.0247 75.1417 40.8502C75.542 40.6756 75.9845 40.5492 76.4148 40.6666C77.1281 40.8592 77.7632 41.3287 78.3952 41.6929C78.4283 41.7109 78.4584 41.729 78.4915 41.7471C82.4943 44.0585 87.6619 44.4377 92.1824 44.7838C95.1288 45.0095 97.9669 44.9854 100.971 43.902L100.983 43.8929V43.899ZM36.9553 28.5979C36.8771 29.5429 36.549 30.8341 35.5558 31.2223C34.3821 31.6828 33.3558 30.4639 32.8441 29.564C32.2843 28.5828 32.0044 27.4572 31.878 26.3407C31.878 26.3346 31.3754 21.9436 31.3754 21.9436L31.9322 24.8689C32.0406 25.4468 32.194 26.0156 32.3897 26.5694C32.9705 28.2337 33.9818 31.3999 35.5528 30.4699C36.227 30.0696 36.3684 29.2179 36.6754 28.5497C36.9102 28.0411 36.9944 28.1194 36.9553 28.5949V28.5979ZM62.6728 37.1032C62.6728 37.2988 62.42 37.1303 62.3417 37.0941C62.119 36.9888 61.8993 36.8805 61.6766 36.7751C60.7827 36.3447 59.8888 35.9083 58.995 35.4719C57.1139 34.557 55.2299 33.6451 53.3128 32.8054C51.4016 31.9687 49.4604 31.1982 47.471 30.5692C45.4726 29.9372 43.4291 29.4466 41.3524 29.1667C41.2561 28.9651 41.6955 28.7755 41.8279 28.7273C42.1048 28.625 42.4299 28.5949 42.7218 28.5588C43.0408 28.5196 43.3598 28.4986 43.6819 28.4895C44.3169 28.4715 44.952 28.5046 45.587 28.5467C47.3205 28.6671 50.2038 29.8951 51.8079 30.6776C55.1035 32.2907 59.0823 34.7286 62.1822 36.739C62.2966 36.8142 62.6698 36.9316 62.6698 37.1032H62.6728Z" fill="#028C08"/>
<path d="M30.1083 21.7269C29.7441 20.6164 29.7141 20.201 29.6448 19.6533C29.1964 16.0567 29.8946 9.81171 34.4573 9.1225C35.8477 8.91183 37.9665 9.23687 39.2065 8.86368C40.7866 8.38514 44.4974 5.57112 46.5109 4.65618C54.968 0.821888 75.0755 0.219956 84.3844 1.53216C89.5188 2.25749 94.6472 4.92705 98.5207 8.29184C98.8337 7.77418 98.7645 6.82614 99.547 6.71779C100.239 6.62149 101.064 6.87429 101.723 7.05186C102.827 7.34982 104.034 7.75312 103.661 9.15561C103.52 9.69133 103.156 10.1337 102.758 10.5069C102.578 10.6755 102.081 10.9403 102.027 11.1871L102.036 11.2022C109.587 13.8808 119.672 12.7371 125.559 19.0453C126.456 20.0054 129.291 24.0805 129.339 25.2181C129.433 27.3971 125.234 30.4489 123.314 30.6144C122.21 30.7107 121.316 29.3684 121.541 28.3572C121.897 26.7591 126.393 24.4236 126.998 22.5185C121.331 13.7423 112.338 14.9552 104.621 13.0682C103.956 13.0621 104.486 13.3059 104.681 13.4594C107.113 15.3465 109.533 17.3178 111.595 19.6232C112.139 20.2311 112.639 20.8812 113.117 21.5433C113.906 22.6328 114.704 23.7193 115.45 24.8389C115.658 25.1519 115.871 25.4619 116.064 25.7869C116.133 25.9043 116.831 27.1533 116.208 26.8283C116.112 26.7771 116.052 26.6838 115.998 26.5905C115.847 26.3317 115.655 26.0668 115.465 25.8321C115.197 25.507 114.926 25.185 114.655 24.863C113.885 23.9571 113.096 23.0662 112.287 22.1994C110.665 20.4599 108.949 18.8046 107.131 17.2726C106.46 16.7068 105.774 16.1591 105.076 15.6324C104.727 15.3675 104.371 15.1117 104.016 14.8589C103.833 14.7295 103.649 14.6001 103.463 14.4737C103.363 14.4074 103.047 14.1065 102.933 14.1155C90.0425 15.1298 77.1251 15.7949 64.2046 16.5834L72.5594 17.4111C76.9415 18.0913 81.0466 19.9332 84.7154 22.389C85.9403 23.2107 87.1412 24.0684 88.2848 25.0014C88.8567 25.4679 89.4165 25.9555 89.9522 26.4641C90.0425 26.5484 91.2975 27.8215 91.0567 27.8786C90.5902 27.987 90.214 27.5355 89.88 27.2857C89.4075 26.9336 88.9229 26.5965 88.4444 26.2534C87.5234 25.5913 86.5994 24.9352 85.6574 24.3002C83.7794 23.0331 81.8291 21.8714 79.7645 20.9294C79.28 20.7097 78.7894 20.499 78.2958 20.3033C73.5677 18.4163 68.4904 17.7662 63.5094 16.8633C63.1121 16.7911 62.754 16.5804 62.4952 16.2734C61.6194 13.2758 60.5991 10.4317 59.4524 7.52739C59.2808 6.75391 57.9175 5.22501 58.9919 4.99627C59.639 4.86084 61.0746 4.71938 61.812 4.64715C68.8214 3.96697 76.7669 3.80746 83.8306 3.62086C87.3699 4.90598 90.1238 6.4108 93.5096 8.04805L100.086 11.7349C95.815 7.48224 90.205 3.43426 84.0292 2.84136C77.1371 2.17924 71.8492 1.90536 64.951 2.33875C57.9416 2.77816 51.5551 3.2567 45.0964 6.72682C43.742 7.45516 40.7595 10.0585 39.8716 10.3414C39.1433 10.5731 36.5791 9.93511 35.5648 9.98327C32.4498 10.1368 31.4295 12.7943 30.8427 15.4638C30.7283 15.9875 30.3491 17.7873 30.3671 18.1725L30.1053 21.7359L30.1083 21.7269Z" fill="#61CB08"/>
<path d="M125.987 38.599C126.249 36.6547 128.482 35.5983 129.361 33.8347C129.806 32.9408 130.077 31.7671 130.017 30.7679C129.65 31.7249 125.731 33.3682 125.587 33.621C125.427 33.9009 125.734 35.5472 125.502 36.3748C124.638 39.4778 119.709 40.5191 116.955 41.118C113.722 41.8193 103.469 43.0231 100.956 41.4912C100.041 40.9344 98.3071 40.1188 97.8014 38.912C97.6178 38.4756 97.8767 37.979 98.3311 37.8465L100.119 37.3259C94.1176 37.4703 88.011 36.5133 82.4823 34.1567C82.2476 34.3915 83.6591 35.5803 83.8607 35.7398C87.37 38.5087 92.0861 39.3333 96.1792 40.8261C96.7481 41.0338 97.365 41.109 97.9007 41.41C98.1144 41.5304 98.3341 41.7471 98.286 42.0179C98.1776 42.6379 97.362 42.677 96.8684 42.668C95.6586 42.6469 94.4607 42.4814 93.2629 42.3309C92.5075 42.2346 91.746 42.1202 91.0207 41.8885C90.8702 41.8494 90.7167 41.8072 90.5662 41.7651C89.3022 41.4009 88.0833 40.8833 86.9577 40.1971C85.8832 39.541 84.9051 38.7344 84.0443 37.8165C83.1474 36.8624 82.377 35.791 81.7088 34.6653C81.134 33.6932 80.6344 32.676 80.189 31.6346L83.015 33.01C91.2735 35.9174 99.7336 37.4854 108.51 36.5193C113.915 35.9264 123.871 34.4306 128.241 31.3337C130.414 29.7927 130.227 29.2239 129.875 26.7018C129.842 26.458 129.794 26.1932 130.032 25.9584C130.709 28.4474 132.027 32.1463 131.178 34.6533C130.549 36.5073 127.877 38.2769 125.996 38.599H125.987Z" fill="#028C08"/>
<path d="M49.3041 5.85106C50.2341 4.85487 52.5997 4.93011 53.963 4.99632C55.3264 5.06254 56.8162 5.3003 57.5385 6.58542C58.1675 7.70802 60.9484 16.2012 60.494 16.74L51.0136 15.0847C50.1077 14.9282 49.268 14.5038 48.6059 13.8688C47.5585 12.8635 46.7459 11.9998 45.2381 11.3226C44.0974 10.829 42.9297 10.4077 41.783 9.93215C41.7288 9.91108 41.6716 9.88399 41.6506 9.82982C41.5422 9.54992 43.0922 8.59586 43.3209 8.43334C43.9861 7.96082 44.6723 7.51239 45.3855 7.11512C46.6195 6.42892 47.8956 5.82397 49.1627 5.20098L49.3011 5.85106H49.3041Z" fill="#61CB08"/>
<path d="M81.9133 28.0834C82.431 27.9178 84.0833 27.9148 84.7304 27.9208C87.9958 27.9539 95.6494 29.7447 98.2256 31.722C102.192 34.7678 94.3462 33.3894 92.9257 33.1576C89.2117 32.5497 85.4557 31.4 82.3708 29.1187C82.0638 28.8899 81.2031 28.3061 81.9103 28.0803L81.9133 28.0834Z" fill="#61CB08"/>
<path d="M82.5966 26.9305C78.666 23.0692 74.0763 20.3785 68.6438 19.1687L62.9556 17.9467C68.7131 17.6789 74.9942 19.4516 79.4846 23.1233C80.6584 24.0834 82.1963 25.4468 82.5966 26.9305Z" fill="#61CB08"/>
<path d="M57.3937 17.0469C56.1688 18.3681 52.1358 18.7443 51.2691 16.5383C51.3082 16.6376 52.9394 16.7188 53.1441 16.7429C53.758 16.8152 54.372 16.8362 54.989 16.8663C55.4645 16.8904 55.5157 16.1801 55.0432 16.135C53.6647 16.0025 51.859 16.0537 51.0734 15.6534C50.1645 15.1899 50.9681 14.1185 51.7024 13.7423C54.2155 12.4512 59.6479 14.6181 57.3967 17.0469H57.3937Z" fill="#028C08"/>
<path d="M70.512 42.4668C72.6516 42.1764 73.9094 38.4293 73.3214 34.0975C72.7334 29.7657 70.5223 26.4895 68.3827 26.7799C66.2432 27.0703 64.9854 30.8174 65.5734 35.1492C66.1614 39.481 68.3725 42.7572 70.512 42.4668Z" fill="#61CB08"/>
</g>
<g filter="url(#filter1_d_2813_9555)">
<path d="M144.135 42.1203C143.611 40.8111 142.91 39.5742 141.995 38.4666C140.574 36.7421 135.019 30.9606 134.724 30.6626L134.462 36.0077C136.421 38.0513 138.94 39.6915 140.412 42.1595C142.139 45.0577 141.814 48.9432 141.432 52.1545L136.4 94.6869C135.479 102.464 130.742 109.184 123.723 112.661L79.4574 134.595C73.0589 137.767 65.6913 137.818 59.2476 134.736L17.9041 114.969C9.25132 110.831 4.01152 101.633 4.86626 92.0805C4.86626 92.0805 8.93532 46.689 8.93532 46.6769C9.2724 42.9269 11.2016 39.6344 14.5513 37.9249C17.1848 36.5796 19.5323 35.3607 19.6196 35.1981L23.794 29.2932C23.18 29.5069 15.2074 33.1486 12.267 34.8189C10.6538 35.7369 9.2754 36.8203 8.16785 38.3071C7.03321 39.836 6.17546 41.5696 5.65479 43.4024C5.38392 44.3595 5.20636 45.3407 5.11607 46.3338L1.04702 91.7374C0.0478126 102.876 6.15741 113.603 16.2488 118.427L57.5923 138.194C61.2912 139.964 65.2489 140.846 69.2066 140.846C73.1642 140.846 77.3687 139.907 81.1549 138.029L125.421 116.095C133.604 112.041 139.13 104.203 140.201 95.1353C140.201 95.1353 145.23 52.606 145.233 52.6029C145.64 49.175 145.447 45.4069 144.129 42.1143L144.135 42.1203Z" fill="url(#paint0_linear_2813_9555)"/>
<path d="M144.135 42.1203C143.611 40.8111 142.91 39.5742 141.995 38.4666C140.574 36.7421 135.019 30.9606 134.724 30.6626L134.462 36.0077C136.421 38.0513 138.94 39.6915 140.412 42.1595C142.139 45.0577 141.814 48.9432 141.432 52.1545L136.4 94.6869C135.479 102.464 130.742 109.184 123.723 112.661L79.4574 134.595C73.0589 137.767 65.6913 137.818 59.2476 134.736L17.9041 114.969C9.25132 110.831 4.01152 101.633 4.86626 92.0805C4.86626 92.0805 8.93532 46.689 8.93532 46.6769C9.2724 42.9269 11.2016 39.6344 14.5513 37.9249C17.1848 36.5796 19.5323 35.3607 19.6196 35.1981L23.794 29.2932C23.18 29.5069 15.2074 33.1486 12.267 34.8189C10.6538 35.7369 9.2754 36.8203 8.16785 38.3071C7.03321 39.836 6.17546 41.5696 5.65479 43.4024C5.38392 44.3595 5.20636 45.3407 5.11607 46.3338L1.04702 91.7374C0.0478126 102.876 6.15741 113.603 16.2488 118.427L57.5923 138.194C61.2912 139.964 65.2489 140.846 69.2066 140.846C73.1642 140.846 77.3687 139.907 81.1549 138.029L125.421 116.095C133.604 112.041 139.13 104.203 140.201 95.1353C140.201 95.1353 145.23 52.606 145.233 52.6029C145.64 49.175 145.447 45.4069 144.129 42.1143L144.135 42.1203Z" stroke="#BCBEC0" stroke-width="0.0751519" stroke-miterlimit="10"/>
</g>
<g filter="url(#filter2_d_2813_9555)">
<path d="M19.77 46.6769C19.77 46.6769 22.0212 48.3412 20.3569 54.3094L15.7581 79.166C15.7581 79.166 15.2676 81.6129 14.1931 82.2991H41.3973L43.8442 73.6885L41.8879 74.9616L25.8375 75.2565L26.9149 67.8588H41.301L42.8661 60.9667L29.0186 60.4761L29.6537 54.0174H43.3958C44.2023 54.0174 44.9999 54.213 45.7162 54.5893L46.6823 55.0949L47.6604 46.6799H19.77V46.6769Z" fill="url(#paint1_linear_2813_9555)"/>
</g>
<g filter="url(#filter3_d_2813_9555)">
<path d="M71.6052 46.9207C70.4104 46.7822 69.053 46.6949 67.5271 46.6739H53.4329L51.4767 46.1863C51.4767 46.1863 53.3366 47.7513 52.5541 52.0581L47.6604 79.3587L45.8005 82.2961H57.4448V81.318L58.8172 71.2386C58.8172 71.2386 74.3741 73.7848 79.7554 64.485C79.7554 64.485 79.8818 64.3134 80.0744 63.9974C84.33 56.9488 79.7824 47.8687 71.6022 46.9177L71.6052 46.9207ZM72.4208 57.638C72.4509 66.1523 60.1866 63.8048 60.1866 63.8048L61.9503 53.3342C73.5946 51.8655 72.4208 57.638 72.4208 57.638Z" fill="url(#paint2_linear_2813_9555)"/>
</g>
<g filter="url(#filter4_d_2813_9555)">
<path d="M86.2501 46.3188C86.2501 46.3188 88.1732 46.8726 87.2944 50.9837L82.5873 79.1691C82.5873 79.1691 82.0125 81.1254 80.7394 82.3022H92.9736C92.9736 82.3022 92.0918 79.5634 92.2874 77.7034L98.1593 46.6799C98.1593 46.6799 88.0137 47.005 86.2531 46.3218L86.2501 46.3188Z" fill="url(#paint3_linear_2813_9555)"/>
</g>
<g filter="url(#filter5_d_2813_9555)">
<path d="M125.755 57.93C125.755 57.93 125.755 52.5819 119.191 53.3283C115.522 53.7466 112.229 55.8805 110.327 59.0466C108.732 61.7011 107.546 65.406 109.214 69.5744C109.214 69.5744 113.617 78.7749 123.991 70.0649C123.991 70.0649 129.472 73.8812 131.723 72.903C131.723 72.903 125.46 85.1373 109.509 82.2992C109.509 82.2992 97.1811 79.5484 98.1021 67.2359C98.1262 66.9229 98.1502 66.6159 98.1623 66.3029C98.2194 64.8823 98.713 59.2513 102.966 53.879C106.306 49.6595 111.137 46.8997 116.419 45.8583C119.723 45.2082 123.988 44.8621 127.807 46.0841C131.831 47.3722 134.865 50.7099 135.93 54.8L125.752 57.933L125.755 57.93Z" fill="url(#paint4_linear_2813_9555)"/>
</g>
<g filter="url(#filter6_d_2813_9555)">
<path d="M44.6266 95.7072C44.6266 95.7072 46.0532 90.9248 41.6531 88.3696C40.38 87.6293 38.9203 87.2892 37.4516 87.2892H24.6606L25.1511 88.2703L20.2574 111.755H28.5611L27.8327 111.315L28.5761 103.144H30.9267L34.6436 111.758H42.7666L38.1679 102.464C38.1679 102.464 43.6484 100.21 44.6296 95.7102L44.6266 95.7072ZM32.6542 99.0178C31.0832 98.9425 29.7529 98.4459 29.7529 98.4459L30.9267 91.7916H34.5924C35.3478 91.7916 36.1333 91.9451 36.7112 92.4266C37.1506 92.7908 37.3583 93.3536 37.4365 93.9525C37.7917 96.7455 35.4712 99.1472 32.6572 99.0148L32.6542 99.0178Z" fill="url(#paint5_linear_2813_9555)"/>
</g>
<g filter="url(#filter7_d_2813_9555)">
<path d="M48.8344 87.2892C48.8344 87.2892 50.1075 87.8761 49.7162 90.028L44.8496 111.755H53.5265C53.5265 111.755 52.6537 111.363 53.5355 106.274L57.2554 87.2892H48.8404H48.8344Z" fill="url(#paint6_linear_2813_9555)"/>
</g>
<g filter="url(#filter8_d_2813_9555)">
<path d="M82.3137 94.419C81.5733 91.3492 79.5238 87.9573 74.1816 87.2892H60.2861C60.2861 87.2892 60.9693 88.6616 60.2861 91.2017L57.2493 109.503L56.1057 111.592L71.2412 111.649C71.2412 111.649 77.4531 110.512 81.0045 103.797C82.5304 100.914 83.0782 97.5882 82.3107 94.419H82.3137ZM75.7587 99.0449C75.4487 100.938 74.5368 102.72 73.1343 104.134C69.1736 108.113 63.7502 106.47 63.7502 106.47L66.188 91.7946C75.4968 91.4636 76.2493 96.0382 75.7587 99.0479V99.0449Z" fill="url(#paint7_linear_2813_9555)"/>
</g>
<g filter="url(#filter9_d_2813_9555)">
<path d="M86.9995 86.6029L83.0869 111.755L100.308 112.134L102.755 106.807H91.1106L91.7969 102.262L100.799 102.361L102.072 97.3685L92.9225 97.1728L93.7531 91.7916H103.76L105.593 86.6029H86.9995Z" fill="url(#paint8_linear_2813_9555)"/>
</g>
<g filter="url(#filter10_d_2813_9555)">
<path d="M105.593 104.513C105.593 104.513 105.494 108.917 104.32 110.19C104.32 110.19 108.04 113.702 114.974 112.805C118.562 112.341 121.815 110.337 123.6 107.189C123.666 107.072 123.729 106.954 123.793 106.834C125.451 103.641 124.25 99.6889 121.165 97.838C119.826 97.0344 117.969 96.1857 115.51 95.5988C114.327 95.3189 113.545 94.1 113.885 92.9323C114.204 91.8398 115.474 90.9549 119.293 91.7886C119.293 91.7886 122.817 92.3755 125.165 94.5274L126.926 88.5592C126.926 88.5592 122.947 84.9778 116.461 85.5676C113.169 85.8686 110.099 87.5149 108.296 90.2868C106.815 92.5621 106.033 95.7011 108.823 99.1592C108.823 99.1592 110.797 101.561 116.274 103.051C117.015 103.252 117.62 103.836 117.764 104.589C117.936 105.479 117.475 106.629 114.697 107.445C109.512 108.968 105.596 104.51 105.596 104.51L105.593 104.513Z" fill="url(#paint9_linear_2813_9555)"/>
</g>
<defs>
<filter id="filter0_d_2813_9555" x="16.5402" y="3.24635e-05" width="120.961" height="50.014" filterUnits="userSpaceOnUse" color-interpolation-filters="sRGB">
<feFlood flood-opacity="0" result="BackgroundImageFix"/>
<feColorMatrix in="SourceAlpha" type="matrix" values="0 0 0 0 0 0 0 0 0 0 0 0 0 0 0 0 0 0 127 0" result="hardAlpha"/>
<feOffset dx="2.10425" dy="2.10425"/>
<feGaussianBlur stdDeviation="1.50304"/>
<feColorMatrix type="matrix" values="0 0 0 0 0 0 0 0 0 0 0 0 0 0 0 0 0 0 0.75 0"/>
<feBlend mode="normal" in2="BackgroundImageFix" result="effect1_dropShadow_2813_9555"/>
<feBlend mode="normal" in="SourceGraphic" in2="effect1_dropShadow_2813_9555" result="shape"/>
</filter>
<filter id="filter1_d_2813_9555" x="3.24635e-05" y="28.3162" width="150.577" height="117.684" filterUnits="userSpaceOnUse" color-interpolation-filters="sRGB">
<feFlood flood-opacity="0" result="BackgroundImageFix"/>
<feColorMatrix in="SourceAlpha" type="matrix" values="0 0 0 0 0 0 0 0 0 0 0 0 0 0 0 0 0 0 127 0" result="hardAlpha"/>
<feOffset dx="2.10425" dy="2.10425"/>
<feGaussianBlur stdDeviation="1.50304"/>
<feColorMatrix type="matrix" values="0 0 0 0 0 0 0 0 0 0 0 0 0 0 0 0 0 0 0.75 0"/>
<feBlend mode="normal" in2="BackgroundImageFix" result="effect1_dropShadow_2813_9555"/>
<feBlend mode="normal" in="SourceGraphic" in2="effect1_dropShadow_2813_9555" result="shape"/>
</filter>
<filter id="filter2_d_2813_9555" x="13.5912" y="46.0749" width="34.6713" height="36.8261" filterUnits="userSpaceOnUse" color-interpolation-filters="sRGB">
<feFlood flood-opacity="0" result="BackgroundImageFix"/>
<feColorMatrix in="SourceAlpha" type="matrix" values="0 0 0 0 0 0 0 0 0 0 0 0 0 0 0 0 0 0 127 0" result="hardAlpha"/>
<feOffset/>
<feGaussianBlur stdDeviation="0.300608"/>
<feColorMatrix type="matrix" values="0 0 0 0 0.490196 0 0 0 0 1 0 0 0 0 0 0 0 0 1 0"/>
<feBlend mode="normal" in2="BackgroundImageFix" result="effect1_dropShadow_2813_9555"/>
<feBlend mode="normal" in="SourceGraphic" in2="effect1_dropShadow_2813_9555" result="shape"/>
</filter>
<filter id="filter3_d_2813_9555" x="45.1985" y="45.5844" width="37.1029" height="37.3136" filterUnits="userSpaceOnUse" color-interpolation-filters="sRGB">
<feFlood flood-opacity="0" result="BackgroundImageFix"/>
<feColorMatrix in="SourceAlpha" type="matrix" values="0 0 0 0 0 0 0 0 0 0 0 0 0 0 0 0 0 0 127 0" result="hardAlpha"/>
<feOffset/>
<feGaussianBlur stdDeviation="0.300608"/>
<feColorMatrix type="matrix" values="0 0 0 0 0.490196 0 0 0 0 1 0 0 0 0 0 0 0 0 1 0"/>
<feBlend mode="normal" in2="BackgroundImageFix" result="effect1_dropShadow_2813_9555"/>
<feBlend mode="normal" in="SourceGraphic" in2="effect1_dropShadow_2813_9555" result="shape"/>
</filter>
<filter id="filter4_d_2813_9555" x="80.1375" y="45.7169" width="18.6235" height="37.1873" filterUnits="userSpaceOnUse" color-interpolation-filters="sRGB">
<feFlood flood-opacity="0" result="BackgroundImageFix"/>
<feColorMatrix in="SourceAlpha" type="matrix" values="0 0 0 0 0 0 0 0 0 0 0 0 0 0 0 0 0 0 127 0" result="hardAlpha"/>
<feOffset/>
<feGaussianBlur stdDeviation="0.300608"/>
<feColorMatrix type="matrix" values="0 0 0 0 0.490196 0 0 0 0 1 0 0 0 0 0 0 0 0 1 0"/>
<feBlend mode="normal" in2="BackgroundImageFix" result="effect1_dropShadow_2813_9555"/>
<feBlend mode="normal" in="SourceGraphic" in2="effect1_dropShadow_2813_9555" result="shape"/>
</filter>
<filter id="filter5_d_2813_9555" x="97.451" y="44.6665" width="39.0814" height="38.6617" filterUnits="userSpaceOnUse" color-interpolation-filters="sRGB">
<feFlood flood-opacity="0" result="BackgroundImageFix"/>
<feColorMatrix in="SourceAlpha" type="matrix" values="0 0 0 0 0 0 0 0 0 0 0 0 0 0 0 0 0 0 127 0" result="hardAlpha"/>
<feOffset/>
<feGaussianBlur stdDeviation="0.300608"/>
<feColorMatrix type="matrix" values="0 0 0 0 0.490196 0 0 0 0 1 0 0 0 0 0 0 0 0 1 0"/>
<feBlend mode="normal" in2="BackgroundImageFix" result="effect1_dropShadow_2813_9555"/>
<feBlend mode="normal" in="SourceGraphic" in2="effect1_dropShadow_2813_9555" result="shape"/>
</filter>
<filter id="filter6_d_2813_9555" x="19.6555" y="86.6873" width="25.7936" height="25.6724" filterUnits="userSpaceOnUse" color-interpolation-filters="sRGB">
<feFlood flood-opacity="0" result="BackgroundImageFix"/>
<feColorMatrix in="SourceAlpha" type="matrix" values="0 0 0 0 0 0 0 0 0 0 0 0 0 0 0 0 0 0 127 0" result="hardAlpha"/>
<feOffset/>
<feGaussianBlur stdDeviation="0.300608"/>
<feColorMatrix type="matrix" values="0 0 0 0 0.490196 0 0 0 0 1 0 0 0 0 0 0 0 0 1 0"/>
<feBlend mode="normal" in2="BackgroundImageFix" result="effect1_dropShadow_2813_9555"/>
<feBlend mode="normal" in="SourceGraphic" in2="effect1_dropShadow_2813_9555" result="shape"/>
</filter>
<filter id="filter7_d_2813_9555" x="44.2477" y="86.6873" width="13.6097" height="25.6693" filterUnits="userSpaceOnUse" color-interpolation-filters="sRGB">
<feFlood flood-opacity="0" result="BackgroundImageFix"/>
<feColorMatrix in="SourceAlpha" type="matrix" values="0 0 0 0 0 0 0 0 0 0 0 0 0 0 0 0 0 0 127 0" result="hardAlpha"/>
<feOffset/>
<feGaussianBlur stdDeviation="0.300608"/>
<feColorMatrix type="matrix" values="0 0 0 0 0.490196 0 0 0 0 1 0 0 0 0 0 0 0 0 1 0"/>
<feBlend mode="normal" in2="BackgroundImageFix" result="effect1_dropShadow_2813_9555"/>
<feBlend mode="normal" in="SourceGraphic" in2="effect1_dropShadow_2813_9555" result="shape"/>
</filter>
<filter id="filter8_d_2813_9555" x="55.5037" y="86.6873" width="27.7534" height="25.564" filterUnits="userSpaceOnUse" color-interpolation-filters="sRGB">
<feFlood flood-opacity="0" result="BackgroundImageFix"/>
<feColorMatrix in="SourceAlpha" type="matrix" values="0 0 0 0 0 0 0 0 0 0 0 0 0 0 0 0 0 0 127 0" result="hardAlpha"/>
<feOffset/>
<feGaussianBlur stdDeviation="0.300608"/>
<feColorMatrix type="matrix" values="0 0 0 0 0.490196 0 0 0 0 1 0 0 0 0 0 0 0 0 1 0"/>
<feBlend mode="normal" in2="BackgroundImageFix" result="effect1_dropShadow_2813_9555"/>
<feBlend mode="normal" in="SourceGraphic" in2="effect1_dropShadow_2813_9555" result="shape"/>
</filter>
<filter id="filter9_d_2813_9555" x="82.485" y="86.001" width="23.7101" height="26.7348" filterUnits="userSpaceOnUse" color-interpolation-filters="sRGB">
<feFlood flood-opacity="0" result="BackgroundImageFix"/>
<feColorMatrix in="SourceAlpha" type="matrix" values="0 0 0 0 0 0 0 0 0 0 0 0 0 0 0 0 0 0 127 0" result="hardAlpha"/>
<feOffset/>
<feGaussianBlur stdDeviation="0.300608"/>
<feColorMatrix type="matrix" values="0 0 0 0 0.490196 0 0 0 0 1 0 0 0 0 0 0 0 0 1 0"/>
<feBlend mode="normal" in2="BackgroundImageFix" result="effect1_dropShadow_2813_9555"/>
<feBlend mode="normal" in="SourceGraphic" in2="effect1_dropShadow_2813_9555" result="shape"/>
</filter>
<filter id="filter10_d_2813_9555" x="103.718" y="84.9001" width="23.8093" height="28.6533" filterUnits="userSpaceOnUse" color-interpolation-filters="sRGB">
<feFlood flood-opacity="0" result="BackgroundImageFix"/>
<feColorMatrix in="SourceAlpha" type="matrix" values="0 0 0 0 0 0 0 0 0 0 0 0 0 0 0 0 0 0 127 0" result="hardAlpha"/>
<feOffset/>
<feGaussianBlur stdDeviation="0.300608"/>
<feColorMatrix type="matrix" values="0 0 0 0 0.490196 0 0 0 0 1 0 0 0 0 0 0 0 0 1 0"/>
<feBlend mode="normal" in2="BackgroundImageFix" result="effect1_dropShadow_2813_9555"/>
<feBlend mode="normal" in="SourceGraphic" in2="effect1_dropShadow_2813_9555" result="shape"/>
</filter>
<linearGradient id="paint0_linear_2813_9555" x1="75.8188" y1="32.0019" x2="68.9748" y2="134.989" gradientUnits="userSpaceOnUse">
<stop offset="0.09" stop-color="#555437"/>
<stop offset="0.82" stop-color="#242819"/>
</linearGradient>
<linearGradient id="paint1_linear_2813_9555" x1="41.8759" y1="44.1578" x2="39.11" y2="76.2016" gradientUnits="userSpaceOnUse">
<stop offset="0.16" stop-color="#61CB08"/>
<stop offset="0.76" stop-color="#028C08"/>
</linearGradient>
<linearGradient id="paint2_linear_2813_9555" x1="67.8642" y1="46.4" x2="65.0983" y2="78.4437" gradientUnits="userSpaceOnUse">
<stop offset="0.16" stop-color="#61CB08"/>
<stop offset="0.76" stop-color="#028C08"/>
</linearGradient>
<linearGradient id="paint3_linear_2813_9555" x1="87.487" y1="48.0945" x2="84.7212" y2="80.1382" gradientUnits="userSpaceOnUse">
<stop offset="0.16" stop-color="#61CB08"/>
<stop offset="0.76" stop-color="#028C08"/>
</linearGradient>
<linearGradient id="paint4_linear_2813_9555" x1="108.729" y1="49.9304" x2="105.963" y2="81.9711" gradientUnits="userSpaceOnUse">
<stop offset="0.16" stop-color="#61CB08"/>
<stop offset="0.76" stop-color="#028C08"/>
</linearGradient>
<linearGradient id="paint5_linear_2813_9555" x1="41.6019" y1="81.4053" x2="41.1414" y2="102.386" gradientUnits="userSpaceOnUse">
<stop offset="0.16" stop-color="#61CB08"/>
<stop offset="0.76" stop-color="#028C08"/>
</linearGradient>
<linearGradient id="paint6_linear_2813_9555" x1="56.0606" y1="81.7243" x2="55.6001" y2="102.702" gradientUnits="userSpaceOnUse">
<stop offset="0.16" stop-color="#61CB08"/>
<stop offset="0.76" stop-color="#028C08"/>
</linearGradient>
<linearGradient id="paint7_linear_2813_9555" x1="70.5369" y1="82.0434" x2="70.0735" y2="103.021" gradientUnits="userSpaceOnUse">
<stop offset="0.16" stop-color="#61CB08"/>
<stop offset="0.76" stop-color="#028C08"/>
</linearGradient>
<linearGradient id="paint8_linear_2813_9555" x1="90.0302" y1="82.4707" x2="89.5697" y2="103.448" gradientUnits="userSpaceOnUse">
<stop offset="0.16" stop-color="#61CB08"/>
<stop offset="0.76" stop-color="#028C08"/>
</linearGradient>
<linearGradient id="paint9_linear_2813_9555" x1="106.74" y1="82.8379" x2="106.279" y2="103.815" gradientUnits="userSpaceOnUse">
<stop offset="0.16" stop-color="#61CB08"/>
<stop offset="0.76" stop-color="#028C08"/>
</linearGradient>
</defs>
</svg>
